<svg xmlns="http://www.w3.org/2000/svg" viewBox="0 0 500 500"><g id="freepik--Floor--inject-5"><ellipse id="freepik--floor--inject-5" cx="244.99" cy="342.95" rx="236.58" ry="136.59" style="fill:#f0f0f0"></ellipse></g><g id="freepik--Shadow--inject-5"><path id="freepik--shadow--inject-5" d="M200.61,459.68a14.67,14.67,0,0,1-7.23-1.79L78.09,391.32a7,7,0,0,1,0-12.83l203-117.21a15.52,15.52,0,0,1,14.47,0l115.29,66.57a7,7,0,0,1,0,12.83l-203,117.21A14.74,14.74,0,0,1,200.61,459.68Z" style="fill:#e0e0e0"></path></g><g id="freepik--Device--inject-5"><g id="freepik--Laptop--inject-5"><path d="M74.73,376.14a11.34,11.34,0,0,0,5.3,8.79l115.29,66.58a11.69,11.69,0,0,0,10.59,0l203-117.21a10,10,0,0,0,0-17.59l-115.3-66.58a11.69,11.69,0,0,0-10.59,0L80,367.34A11.37,11.37,0,0,0,74.73,376.14Z" style="fill:#1565C0"></path><path d="M414.22,325.5a11.36,11.36,0,0,1-5.29,8.8l-203,117.21a10.89,10.89,0,0,1-5.29,1.27V441.31a10.89,10.89,0,0,0,5.29-1.27l203-117.21c2.56-1.48,2.88-3.76,1-5.44A11.34,11.34,0,0,1,414.22,325.5Z" style="opacity:0.5"></path><path d="M80,373.46,195.32,440a11.69,11.69,0,0,0,10.59,0l203-117.22c2.92-1.68,2.92-4.42,0-6.11l-115.3-66.58a11.69,11.69,0,0,0-10.59,0L80,367.34C77.1,369,77.1,371.77,80,373.46Z" style="opacity:0.30000000000000004"></path><path d="M200.62,441.31v11.46a10.76,10.76,0,0,1-5.3-1.26L80,384.93a9.92,9.92,0,0,1-.54-17.24c-2.37,1.7-2.18,4.19.54,5.77L195.32,440A10.88,10.88,0,0,0,200.62,441.31Z" style="opacity:0.7000000000000001"></path><path d="M69.76,367.53c-2.74-1.58-2.59-4.25-2.59-7.63V200.65a11.71,11.71,0,0,1,5.29-9.17l203-117.21a11.33,11.33,0,0,1,10.26-.19c2.75,1.58,2.6,4.26,2.6,7.63V241a11.69,11.69,0,0,1-5.3,9.17L80,367.34A11.33,11.33,0,0,1,69.76,367.53Z" style="fill:#1565C0"></path><path d="M288.34,81.71c0-3.37-2.37-4.74-5.3-3.06L80,195.87a10.75,10.75,0,0,0-3.74,4l-7.56-4.4h0a10.94,10.94,0,0,1,3.75-4l203-117.2a11.33,11.33,0,0,1,10.26-.19C288.48,75.66,288.34,78.34,288.34,81.71Z" style="opacity:0.30000000000000004"></path><path d="M74.73,205V364.29c0,3.37,2.37,4.74,5.29,3L283,250.13a11.69,11.69,0,0,0,5.3-9.17V81.71c0-3.37-2.37-4.74-5.3-3L80,195.87A11.71,11.71,0,0,0,74.73,205Z" style="opacity:0.5"></path><path d="M79.4,367.66a11.38,11.38,0,0,1-9.64-.13c-2.74-1.58-2.59-4.25-2.59-7.63V200.65a10.74,10.74,0,0,1,1.55-5.21l7.56,4.37h0A10.94,10.94,0,0,0,74.73,205V364.29C74.73,367.42,76.77,368.83,79.4,367.66Z" style="opacity:0.7000000000000001"></path><path d="M82.87,202,278.61,89c1.75-1,3.17-.19,3.17,1.83v139a7,7,0,0,1-3.17,5.5l-195.74,113c-1.75,1-3.17.19-3.17-1.84v-139A7,7,0,0,1,82.87,202Z" style="fill:#fafafa"></path><path d="M123.84,236.94l114.93-66.35c3.41-2,6.17-.57,6.17,3.12S242.18,182,238.77,184L123.84,250.3c-3.4,2-6.16.57-6.16-3.12S120.44,238.91,123.84,236.94Z" style="fill:#455a64"></path><path d="M243,173.71c0,3-2.39,7-5.22,8.59l-23.47,13.56-91.46,52.79a3.84,3.84,0,0,1-1.94.64c-.91,0-1.38-.71-1.38-2.11,0-3,2.39-7,5.22-8.6l89.56-51.7,25.37-14.65a4.06,4.06,0,0,1,1.95-.64C242.58,171.59,243,172.31,243,173.71Z" style="fill:#1565C0"></path><path d="M243,173.71c0,3-2.39,7-5.22,8.59l-23.47,13.56-91.46,52.79a3.84,3.84,0,0,1-1.94.64c-.91,0-1.38-.71-1.38-2.11,0-3,2.39-7,5.22-8.6l89.56-51.7,25.37-14.65a4.06,4.06,0,0,1,1.95-.64C242.58,171.59,243,172.31,243,173.71Z" style="fill:#1565C0"></path><path d="M243,173.71c0,3-2.39,7-5.22,8.59l-23.47,13.56v-9l25.37-14.65a4.06,4.06,0,0,1,1.95-.64C242.58,171.59,243,172.31,243,173.71Z" style="fill:#263238"></path><path d="M151.07,223.41l-26.28,15.17c-2.83,1.63-5.22,5.57-5.22,8.6,0,1.4.47,2.11,1.38,2.11a3.84,3.84,0,0,0,1.94-.64l28.18-16.26Z" style="fill:#fff;opacity:0.6000000000000001"></path><polygon points="151.08 232.38 182.93 214 182.93 205.02 151.08 223.41 151.08 232.38" style="fill:#fff;opacity:0.4"></polygon><path d="M159.66,253.51a.2.2,0,0,1,.26,0,.45.45,0,0,1,.11.33v1.46a1.07,1.07,0,0,1-.11.46.68.68,0,0,1-.26.31l-5.87,3.39a.18.18,0,0,1-.25,0,.45.45,0,0,1-.11-.33V245.8a1.11,1.11,0,0,1,.11-.46.67.67,0,0,1,.25-.31l1.09-.63a.19.19,0,0,1,.25,0,.45.45,0,0,1,.11.33v11.31Z" style="fill:#455a64"></path><path d="M164.93,242.11a2.56,2.56,0,0,1,1.34-.42,1.57,1.57,0,0,1,1,.37,2.65,2.65,0,0,1,.7,1.05,5.24,5.24,0,0,1,.3,1.6c0,.11,0,.27,0,.46v1.15c0,.18,0,.34,0,.47a10,10,0,0,1-.31,2,9.43,9.43,0,0,1-.69,1.84,7.6,7.6,0,0,1-1,1.55,5.27,5.27,0,0,1-1.34,1.13,2.6,2.6,0,0,1-1.33.41,1.56,1.56,0,0,1-1-.36,2.37,2.37,0,0,1-.69-1,5.22,5.22,0,0,1-.31-1.59c0-.12,0-.27,0-.46s0-.37,0-.56,0-.39,0-.58,0-.36,0-.49a9.4,9.4,0,0,1,.3-2,9.8,9.8,0,0,1,.7-1.85,7.4,7.4,0,0,1,1-1.56A5,5,0,0,1,164.93,242.11Zm1.63,3.71a3,3,0,0,0-.2-1,.92.92,0,0,0-.38-.45.77.77,0,0,0-.5,0,2,2,0,0,0-.55.23,3.18,3.18,0,0,0-.55.4,2.93,2.93,0,0,0-.49.63,4,4,0,0,0-.38.89,5,5,0,0,0-.2,1.18c0,.11,0,.26,0,.42s0,.34,0,.52,0,.36,0,.53,0,.3,0,.39a2.7,2.7,0,0,0,.2.95.92.92,0,0,0,.38.45.74.74,0,0,0,.49.05,1.81,1.81,0,0,0,.55-.22,3.41,3.41,0,0,0,.55-.41,3,3,0,0,0,.5-.63,3.84,3.84,0,0,0,.38-.89,5.46,5.46,0,0,0,.2-1.18c0-.1,0-.23,0-.41v-1C166.57,246.06,166.56,245.92,166.56,245.82Z" style="fill:#455a64"></path><path d="M170.51,241.74a6.26,6.26,0,0,1,.25-1.08,6.64,6.64,0,0,1,.55-1.24,7.17,7.17,0,0,1,.87-1.22,4.73,4.73,0,0,1,1.2-1,2.93,2.93,0,0,1,1.23-.43,1.29,1.29,0,0,1,.95.27,2,2,0,0,1,.61,1,6.08,6.08,0,0,1,.21,1.74v6.07a1,1,0,0,1-.1.45.67.67,0,0,1-.26.32l-1,.58a.18.18,0,0,1-.25,0,.45.45,0,0,1-.11-.33v-.69a6.22,6.22,0,0,1-.81,1.49,4.26,4.26,0,0,1-1.35,1.21,2.45,2.45,0,0,1-1,.36,1.08,1.08,0,0,1-.76-.23,1.58,1.58,0,0,1-.48-.75,3.81,3.81,0,0,1-.17-1.2,5.26,5.26,0,0,1,.66-2.6,7.34,7.34,0,0,1,1.76-2.11l2.18-1.84c0-.57-.12-.89-.36-1a1.06,1.06,0,0,0-.9.17,1.78,1.78,0,0,0-.52.44,3.17,3.17,0,0,0-.36.61,1.92,1.92,0,0,1-.23.35.79.79,0,0,1-.22.19l-1.24.72a.21.21,0,0,1-.23,0A.31.31,0,0,1,170.51,241.74Zm2.24,4.53a3.44,3.44,0,0,0,.81-.67,4.22,4.22,0,0,0,.6-.87,4.4,4.4,0,0,0,.36-.95,3.81,3.81,0,0,0,.12-.92v-.21l-1.82,1.55a3.41,3.41,0,0,0-.79.88,1.79,1.79,0,0,0-.25.9c0,.29.1.44.29.47A1.12,1.12,0,0,0,172.75,246.27Z" style="fill:#455a64"></path><path d="M181.52,232.53a2.39,2.39,0,0,1,.74-.3,1.46,1.46,0,0,1,.58,0,1.05,1.05,0,0,1,.42.16,1.39,1.39,0,0,1,.28.24v-4.4a1.06,1.06,0,0,1,.11-.45.68.68,0,0,1,.26-.31l1-.59a.2.2,0,0,1,.26,0,.45.45,0,0,1,.11.33v13.54a1.06,1.06,0,0,1-.11.45.67.67,0,0,1-.26.32l-1,.59a.21.21,0,0,1-.26,0,.45.45,0,0,1-.11-.33v-.48a4.92,4.92,0,0,1-.28.57,5.38,5.38,0,0,1-.42.64,5.76,5.76,0,0,1-.58.65,3.75,3.75,0,0,1-.74.55,1.83,1.83,0,0,1-1.21.3,1.49,1.49,0,0,1-.93-.54,3.07,3.07,0,0,1-.6-1.2,6.6,6.6,0,0,1-.25-1.69c0-.2,0-.43,0-.71s0-.52,0-.73a10.52,10.52,0,0,1,.25-2,9.79,9.79,0,0,1,.6-1.9,7,7,0,0,1,.93-1.6A4.07,4.07,0,0,1,181.52,232.53Zm-1.25,5.72a11,11,0,0,0,0,1.15c.06.87.23,1.41.54,1.62a1,1,0,0,0,1.11-.05,2.89,2.89,0,0,0,1.11-1.24,4.81,4.81,0,0,0,.51-2c0-.22,0-.48,0-.8s0-.57,0-.77a1.86,1.86,0,0,0-.51-1.39.91.91,0,0,0-1.11,0,2.92,2.92,0,0,0-1.11,1.23A5.42,5.42,0,0,0,180.27,238.25Z" style="fill:#455a64"></path><path d="M189.26,224.35a.18.18,0,0,1,.25,0,.45.45,0,0,1,.11.33v1.61a1.06,1.06,0,0,1-.11.45.68.68,0,0,1-.25.31l-1.16.67a.18.18,0,0,1-.25,0,.45.45,0,0,1-.11-.33v-1.61a1.06,1.06,0,0,1,.11-.45.62.62,0,0,1,.25-.31Zm.29,13.93a1.06,1.06,0,0,1-.11.45.7.7,0,0,1-.25.32l-1,.58a.21.21,0,0,1-.26,0,.45.45,0,0,1-.1-.33v-9.62a1.06,1.06,0,0,1,.1-.46.75.75,0,0,1,.26-.31l1-.59a.18.18,0,0,1,.25,0,.45.45,0,0,1,.11.33Z" style="fill:#455a64"></path><path d="M198.61,233.05a1,1,0,0,1-.1.45.69.69,0,0,1-.26.31l-1,.59a.18.18,0,0,1-.25,0,.45.45,0,0,1-.11-.33v-5.24a3.15,3.15,0,0,0-.37-1.77c-.26-.35-.64-.37-1.16-.07a2.76,2.76,0,0,0-1.12,1.39,5.73,5.73,0,0,0-.41,2.21v5.25a1,1,0,0,1-.1.45.69.69,0,0,1-.26.31l-1,.59a.18.18,0,0,1-.25,0,.44.44,0,0,1-.11-.33V227.2a1.06,1.06,0,0,1,.11-.45.62.62,0,0,1,.25-.31l1-.59a.2.2,0,0,1,.26,0,.45.45,0,0,1,.1.33v.47a8.77,8.77,0,0,1,.82-1.36,3.86,3.86,0,0,1,1.11-1,2.26,2.26,0,0,1,1.37-.4,1.28,1.28,0,0,1,.89.54,3.15,3.15,0,0,1,.47,1.27,9.59,9.59,0,0,1,.14,1.76Z" style="fill:#455a64"></path><path d="M204.11,232.49a2.53,2.53,0,0,0,.58-.46,3.9,3.9,0,0,0,.53-.74,4.2,4.2,0,0,0,.4-1,4.11,4.11,0,0,0,.15-1.13v-.76a5.81,5.81,0,0,1-.28.56,7.09,7.09,0,0,1-.42.65,5.69,5.69,0,0,1-.58.64,3.79,3.79,0,0,1-.74.56,1.88,1.88,0,0,1-1.21.29,1.49,1.49,0,0,1-.93-.54,3.07,3.07,0,0,1-.6-1.2,6.59,6.59,0,0,1-.25-1.68c0-.2,0-.44,0-.71s0-.52,0-.73a10.42,10.42,0,0,1,.25-2,9.37,9.37,0,0,1,.6-1.9,7.06,7.06,0,0,1,.93-1.61,4,4,0,0,1,1.21-1.1,2.73,2.73,0,0,1,.74-.31,1.65,1.65,0,0,1,.58,0,1.11,1.11,0,0,1,.42.16,1.13,1.13,0,0,1,.28.24v-.48a1.06,1.06,0,0,1,.11-.45.64.64,0,0,1,.26-.31l1-.59a.2.2,0,0,1,.26,0,.45.45,0,0,1,.11.33V228a9.49,9.49,0,0,1-.91,4.29,6.33,6.33,0,0,1-2.5,2.71,3.15,3.15,0,0,1-1.27.45,1.85,1.85,0,0,1-1-.15,1.72,1.72,0,0,1-.68-.66,2.18,2.18,0,0,1-.28-1.05.86.86,0,0,1,.1-.45.64.64,0,0,1,.26-.31l.91-.53a.25.25,0,0,1,.32,0l.23.23a.67.67,0,0,0,.48.3A1.59,1.59,0,0,0,204.11,232.49Zm-1.61-7.08a7.48,7.48,0,0,0,0,1.16c.06.86.23,1.4.54,1.62a1,1,0,0,0,1.11-.05,3,3,0,0,0,1.11-1.24,4.81,4.81,0,0,0,.51-2c0-.22,0-.49,0-.8s0-.58,0-.77a1.88,1.88,0,0,0-.51-1.4.93.93,0,0,0-1.11,0,3,3,0,0,0-1.11,1.23A5.46,5.46,0,0,0,202.5,225.41Z" style="fill:#455a64"></path><path d="M211.49,223a.2.2,0,0,1,.25,0,.45.45,0,0,1,.11.33v2a1.06,1.06,0,0,1-.11.45.68.68,0,0,1-.25.31l-1.25.72a.2.2,0,0,1-.26,0,.44.44,0,0,1-.1-.33v-2a1,1,0,0,1,.1-.45.79.79,0,0,1,.26-.32Z" style="fill:#455a64"></path><path d="M215.65,220.63a.2.2,0,0,1,.26,0,.42.42,0,0,1,.11.33v2a1.06,1.06,0,0,1-.11.45.64.64,0,0,1-.26.31l-1.24.72a.2.2,0,0,1-.26,0,.45.45,0,0,1-.1-.33v-2a1,1,0,0,1,.1-.45.64.64,0,0,1,.26-.31Z" style="fill:#455a64"></path><path d="M219.82,218.22a.2.2,0,0,1,.26,0,.45.45,0,0,1,.11.33v2a1.14,1.14,0,0,1-.11.46.68.68,0,0,1-.26.31l-1.24.72a.21.21,0,0,1-.26,0,.45.45,0,0,1-.1-.33v-2a1.09,1.09,0,0,1,.1-.46.68.68,0,0,1,.26-.31Z" style="fill:#455a64"></path><path d="M94.68,367.66l188.44-108.8a5.89,5.89,0,0,1,5.3,0l3.14,1.72c1.46.85,1.46,2.22,0,3.06L103.08,372.42a5.81,5.81,0,0,1-5.29,0l-3.11-1.71C93.22,369.87,93.22,368.5,94.68,367.66Z" style="opacity:0.30000000000000004"></path><path d="M109.46,376.45,297.9,267.65a5.41,5.41,0,0,1,4.84-.27l49.05,28.32c1.21.7,1,1.95-.46,2.8L163.11,407.15a5.47,5.47,0,0,1-4.85.27L109,379.23C107.79,378.54,108,377.29,109.46,376.45Z" style="fill:#263238;opacity:0.30000000000000004"></path><path d="M272.75,313.35l5.9-3.41c.25-.15.27-.37.05-.5l-5.65-3.26a1,1,0,0,0-.85,0l-5.9,3.41c-.26.15-.28.37-.05.5l5.64,3.25A1,1,0,0,0,272.75,313.35Zm-8.62-11.79-5.9,3.4c-.25.15-.27.37-.05.5l5.65,3.26a1,1,0,0,0,.85,0l5.9-3.41c.25-.14.28-.36.05-.49L265,301.53A.94.94,0,0,0,264.13,301.56Zm-19.06,11-10,5.77c-.26.14-.28.37-.06.49l5.65,3.26a.94.94,0,0,0,.86,0l10-5.76c.25-.15.27-.37,0-.5l-5.64-3.26A1,1,0,0,0,245.07,312.56Zm10.44-6-5.9,3.4c-.25.15-.27.37-.05.5l5.64,3.26a1,1,0,0,0,.86,0l5.9-3.41c.25-.14.27-.36.05-.49l-5.64-3.26A.94.94,0,0,0,255.51,306.54ZM232.36,319.9l-5.9,3.41c-.25.14-.27.36-.05.49l5.65,3.26a.92.92,0,0,0,.85,0l5.9-3.4c.25-.15.28-.37.05-.5l-5.64-3.26A1,1,0,0,0,232.36,319.9Zm-8.62,5-5.9,3.41c-.25.14-.27.36-.05.49l5.64,3.26a.94.94,0,0,0,.86,0l5.9-3.41c.25-.14.27-.36.05-.49l-5.64-3.26A.94.94,0,0,0,223.74,324.88Zm22.12,13.3,5.9-3.41c.25-.14.28-.37.05-.49L246.17,331a.94.94,0,0,0-.86,0l-5.9,3.4c-.25.15-.27.37,0,.5l5.65,3.26A1,1,0,0,0,245.86,338.18Zm-8.62,5,5.9-3.41c.25-.15.27-.37.05-.5L237.55,336a1,1,0,0,0-.86,0l-5.9,3.41c-.25.15-.27.37,0,.5l5.64,3.26A1,1,0,0,0,237.24,343.16Zm-8.62,5,5.9-3.41c.25-.15.27-.37,0-.5L228.92,341a1,1,0,0,0-.85,0l-5.9,3.41c-.26.15-.28.37,0,.49l5.64,3.26A1,1,0,0,0,228.62,348.14Zm-8.63,5,5.9-3.4c.25-.15.28-.37.05-.5L220.3,346a1,1,0,0,0-.86,0l-5.9,3.41c-.25.14-.27.37,0,.49l5.65,3.26A.92.92,0,0,0,220,353.11Zm44.13-34.79,5.9-3.4c.25-.15.28-.37.05-.5l-5.64-3.26a1,1,0,0,0-.86,0l-5.9,3.41c-.25.14-.27.37-.05.49l5.65,3.26A.92.92,0,0,0,264.12,318.32Zm-9.63,14.88,13.16-7.6c.25-.15.27-.37.05-.5L254,317.19a1,1,0,0,0-.86,0l-6.8,3.93c-.25.15-.28.37-.05.5l7.25,4.19c.23.12.2.35-.05.49L248,329.47c-.25.15-.28.37,0,.5l5.64,3.26A1,1,0,0,0,254.49,333.2Zm-39.37-3.34-5.9,3.4c-.26.15-.28.37-.06.5l5.65,3.26a1,1,0,0,0,.86,0l5.9-3.41c.25-.14.27-.36.05-.49L216,329.83A.92.92,0,0,0,215.12,329.86Zm-8.63,5-5.9,3.4c-.25.15-.27.37-.05.5l5.65,3.26a1,1,0,0,0,.85,0l5.9-3.41c.25-.14.28-.37.05-.49l-5.64-3.26A.94.94,0,0,0,206.49,334.84ZM158.77,388a.94.94,0,0,0,.86,0l5.9-3.4c.25-.15.27-.37.05-.5l-5.64-3.26a1,1,0,0,0-.86,0l-5.9,3.41c-.25.14-.27.37-.05.49Zm-21.26-13.32-5.9,3.4c-.26.15-.28.37-.05.5l5.64,3.26a1,1,0,0,0,.86,0l5.9-3.41c.25-.14.27-.37,0-.49l-5.65-3.26A.92.92,0,0,0,137.51,374.67Zm10.93,10a1,1,0,0,0,.86,0l5.9-3.41c.25-.14.27-.36.05-.49l-5.65-3.26a.92.92,0,0,0-.85,0l-5.9,3.4c-.25.15-.28.37,0,.5ZM172.23,390l5.9-3.41c.25-.14.28-.36.05-.49l-5.64-3.26a.94.94,0,0,0-.86,0l-5.9,3.4c-.25.15-.27.37-.05.5l5.65,3.26A1,1,0,0,0,172.23,390Zm-9.48,5a1,1,0,0,0,.86,0l5.9-3.41c.25-.14.27-.36.05-.49l-5.64-3.26a.94.94,0,0,0-.86,0l-5.9,3.4c-.25.15-.27.37,0,.5Zm-16.62-25.32-5.9,3.4c-.25.15-.27.37,0,.5l5.64,3.26a1,1,0,0,0,.86,0l5.9-3.41c.25-.14.27-.36,0-.49L147,369.66A.94.94,0,0,0,146.13,369.69Zm43.12-24.9-5.9,3.41c-.26.15-.28.37-.06.5l5.65,3.25a1,1,0,0,0,.86,0l5.9-3.41c.25-.15.27-.37.05-.5l-5.65-3.25A.94.94,0,0,0,189.25,344.79Zm-34.5,19.92-5.9,3.41c-.25.14-.27.36,0,.49l5.65,3.26a1,1,0,0,0,.85,0l5.9-3.41c.25-.14.28-.36.05-.49l-5.64-3.26A.94.94,0,0,0,154.75,364.71Zm43.12-24.89-5.9,3.4c-.25.15-.27.37-.05.5l5.64,3.26a1,1,0,0,0,.86,0l5.9-3.41c.25-.14.27-.37.05-.49l-5.64-3.26A.94.94,0,0,0,197.87,339.82Zm-17.25,9.95-5.9,3.41c-.25.14-.27.37-.05.49l5.65,3.26a.92.92,0,0,0,.85,0l5.9-3.4c.25-.15.28-.37.05-.5l-5.64-3.26A1,1,0,0,0,180.62,349.77Zm-8.62,5-5.9,3.41c-.25.14-.27.36,0,.49l5.64,3.26a.94.94,0,0,0,.86,0l5.9-3.4c.25-.15.27-.37.05-.5l-5.64-3.26A1,1,0,0,0,172,354.75Zm-8.62,5-5.9,3.41c-.26.14-.28.36-.06.49l5.65,3.26a.94.94,0,0,0,.86,0l5.9-3.41c.25-.14.27-.36,0-.49l-5.65-3.26A1,1,0,0,0,163.38,359.73Zm39.37,3.34,5.9-3.41c.25-.14.27-.36,0-.49l-5.65-3.26a1,1,0,0,0-.85,0l-5.9,3.41c-.26.14-.28.36-.05.49l5.64,3.26A.94.94,0,0,0,202.75,363.07Zm80.44-72.52-5.9,3.41c-.25.14-.27.37-.05.49l5.65,3.26a.94.94,0,0,0,.86,0l5.9-3.4c.25-.15.27-.37.05-.5l-5.65-3.26A1,1,0,0,0,283.19,290.55Zm-10.43,6-5.9,3.41c-.26.14-.28.36-.06.49l5.65,3.26a.94.94,0,0,0,.86,0l5.9-3.41c.25-.14.27-.36.05-.49l-5.65-3.26A1,1,0,0,0,272.76,296.58Zm19.06-11-5.9,3.41c-.25.15-.28.37-.05.5l5.64,3.25a1,1,0,0,0,.86,0l5.9-3.41c.25-.15.27-.37.05-.5l-5.65-3.26A1,1,0,0,0,291.82,285.57Zm-47.67,44.28,5.9-3.4c.25-.15.28-.37,0-.5l-5.64-3.26a1,1,0,0,0-.86,0l-5.9,3.41c-.25.14-.27.36,0,.49l5.65,3.26A.92.92,0,0,0,244.15,329.85Zm57.15-49.28a.94.94,0,0,0-.86,0l-5.9,3.4c-.25.15-.27.37-.05.5l5.64,3.26a1,1,0,0,0,.86,0l5.9-3.41c.25-.14.28-.37.05-.49Zm-89.93,77.52,5.9-3.4c.25-.15.27-.37,0-.5l-5.64-3.26a1,1,0,0,0-.86,0l-5.9,3.41c-.25.14-.27.36,0,.49l5.64,3.26A.94.94,0,0,0,211.37,358.09Zm105.75-61,5.9-3.41c.25-.14.27-.37.05-.49l-5.64-3.26a.94.94,0,0,0-.86,0l-5.9,3.4c-.25.15-.28.37-.05.5l5.64,3.26A1,1,0,0,0,317.12,297Zm-16.69.32,5.9-3.41c.25-.14.28-.36.05-.49l-5.64-3.26a1,1,0,0,0-.86,0l-5.9,3.41c-.25.14-.27.36-.05.49l5.65,3.26A.92.92,0,0,0,300.43,297.36Zm8.93-12.14a1,1,0,0,0-.86,0l-5.9,3.41c-.25.14-.27.36-.05.49l5.65,3.26a.94.94,0,0,0,.86,0L315,289c.25-.15.27-.37.05-.5Zm1.82-1.05,13.71,7.92a1,1,0,0,0,.85,0l5.9-3.41c.25-.14.28-.36.05-.49L318,280.24a1,1,0,0,0-.85,0l-5.9,3.41C311,283.82,311,284.05,311.18,284.17Zm-19.92,11-5.9,3.41c-.25.14-.28.36-.05.49l5.64,3.26a1,1,0,0,0,.86,0l5.9-3.41c.25-.14.27-.36.05-.49l-5.64-3.26A.94.94,0,0,0,291.26,295.21Zm-64.9,37.47-5.9,3.41c-.25.14-.28.36-.05.49l5.64,3.26a.94.94,0,0,0,.86,0l5.9-3.41c.25-.14.27-.36.05-.49l-5.65-3.26A.92.92,0,0,0,226.36,332.68Zm81.28-30.63a1,1,0,0,0,.86,0l5.9-3.41c.25-.14.27-.37.05-.49l-5.65-3.26a.92.92,0,0,0-.85,0l-5.9,3.4c-.26.15-.28.37-.06.5ZM235,327.7l-5.9,3.41c-.25.14-.27.36-.05.49l5.64,3.26a.94.94,0,0,0,.86,0l5.9-3.4c.25-.15.27-.37,0-.5l-5.64-3.26A1,1,0,0,0,235,327.7ZM167.4,383a.94.94,0,0,0,.85,0l5.9-3.41c.25-.15.28-.37,0-.5l-5.64-3.25a1,1,0,0,0-.86,0l-5.9,3.41c-.25.15-.27.37-.05.5Zm-10-10.5-5.9,3.41c-.25.14-.27.36-.05.49l5.64,3.26a1,1,0,0,0,.86,0l5.9-3.41c.25-.14.27-.36.05-.49l-5.64-3.26A.94.94,0,0,0,157.37,372.51Zm19.51,5.5,5.9-3.41c.25-.14.27-.37.05-.49l-5.65-3.26a.92.92,0,0,0-.85,0l-5.9,3.4c-.25.15-.28.37-.05.5L176,378A1,1,0,0,0,176.88,378Zm8.62-5,5.9-3.41c.25-.14.27-.36,0-.49l-5.64-3.26a.94.94,0,0,0-.86,0l-5.9,3.4c-.25.15-.27.37-.05.5l5.64,3.26A1,1,0,0,0,185.5,373Zm8.62-5,5.9-3.41c.25-.14.28-.36,0-.49l-5.64-3.26a.94.94,0,0,0-.86,0l-5.9,3.4c-.25.15-.27.37,0,.5l5.65,3.26A1,1,0,0,0,194.12,368.05ZM166,367.53l-5.9,3.41c-.25.14-.27.36-.05.49l5.65,3.26a.92.92,0,0,0,.85,0l5.9-3.41c.25-.14.28-.36.05-.49l-5.64-3.26A1,1,0,0,0,166,367.53Zm8.63-5-5.9,3.41c-.25.14-.28.36-.05.49l5.64,3.26a.94.94,0,0,0,.86,0l5.9-3.4c.25-.15.27-.37.05-.5l-5.65-3.26A1,1,0,0,0,174.62,362.55Zm34.49-19.91-5.9,3.4c-.25.15-.27.37-.05.5l5.64,3.26a1,1,0,0,0,.86,0l5.9-3.41c.25-.14.27-.37.05-.49L210,342.61A.94.94,0,0,0,209.11,342.64Zm-8.62,5-5.9,3.4c-.25.15-.28.37-.05.5l5.64,3.26a1,1,0,0,0,.86,0l5.9-3.41c.25-.14.27-.37.05-.49l-5.65-3.26A.92.92,0,0,0,200.49,347.62Zm17.24-10-5.9,3.4c-.25.15-.27.37-.05.5l5.65,3.26a1,1,0,0,0,.85,0l5.9-3.41c.25-.14.28-.36,0-.49l-5.64-3.26A.94.94,0,0,0,217.73,337.66Zm-34.49,19.91-5.9,3.41c-.25.14-.27.37-.05.49l5.64,3.26a.94.94,0,0,0,.86,0l5.9-3.4c.25-.15.27-.37.05-.5l-5.64-3.26A1,1,0,0,0,183.24,357.57Zm8.62-5L186,356c-.25.15-.27.37-.05.5l5.65,3.25a.94.94,0,0,0,.85,0l5.9-3.41c.25-.15.28-.37.05-.5l-5.64-3.25A1,1,0,0,0,191.86,352.59Zm-11,32.43,5.9-3.41c.25-.14.27-.36.05-.49l-5.65-3.26a.92.92,0,0,0-.85,0l-5.9,3.41c-.26.14-.28.36-.06.49l5.65,3.26A.94.94,0,0,0,180.86,385Zm-45.48-2.15-5.64-3.25a1,1,0,0,0-.86,0l-5.9,3.41c-.25.15-.27.37,0,.5l5.65,3.26a1,1,0,0,0,.85,0l5.9-3.41C135.58,383.22,135.61,383,135.38,382.87Zm11.24,2.83L141,382.44a.94.94,0,0,0-.86,0l-9.07,5.24c-.25.14-.28.36-.05.49l5.64,3.26a.94.94,0,0,0,.86,0l9.07-5.24C146.82,386.05,146.85,385.82,146.62,385.7ZM127,376.44l-5.65-3.26a.92.92,0,0,0-.85,0l-7.26,4.19c-.25.15-.28.37-.06.5l5.65,3.25a1,1,0,0,0,.86,0l7.26-4.2C127.16,376.79,127.18,376.57,127,376.44Zm5.57-3.22a.92.92,0,0,0,.85,0l5.9-3.4c.25-.15.28-.37.05-.5L133.69,366a1,1,0,0,0-.86,0l-5.9,3.41c-.25.14-.27.37-.05.49ZM157,389l-5.65-3.26a1,1,0,0,0-.85,0l-11.35,6.55c-.25.15-.27.37-.05.5l5.64,3.26a1,1,0,0,0,.86,0l11.35-6.55C157.16,389.39,157.18,389.17,157,389Zm4,7-5.65-3.26a.92.92,0,0,0-.85,0L147.17,397c-.25.14-.27.36,0,.49l5.65,3.26a.92.92,0,0,0,.85,0l7.27-4.19C161.14,396.41,161.16,396.18,160.94,396.06Zm35.7-59.85a1,1,0,0,0,.86,0l5.9-3.41c.25-.14.27-.36,0-.49L197.8,329a.92.92,0,0,0-.85,0l-5.9,3.4c-.25.15-.28.37-.05.5Zm-17.25,10a1,1,0,0,0,.86,0l5.9-3.41c.25-.15.28-.37,0-.5L180.56,339a1,1,0,0,0-.86,0l-5.9,3.41c-.25.15-.27.37-.05.5Zm-38.24,22.08a1,1,0,0,0,.86,0l5.9-3.41c.25-.15.27-.37.05-.5l-5.65-3.25a.92.92,0,0,0-.85,0l-5.9,3.4c-.25.15-.28.37-.06.5ZM188,341.19a1,1,0,0,0,.86,0l5.9-3.41c.25-.14.27-.37.05-.49L189.18,334a.94.94,0,0,0-.86,0l-5.9,3.4c-.25.15-.27.37,0,.5Zm-17.25,9.95a.94.94,0,0,0,.86,0l5.9-3.4c.25-.15.27-.37.05-.5L171.93,344a1,1,0,0,0-.85,0l-5.9,3.41c-.25.14-.28.37-.05.49Zm-5.6,45.26a1,1,0,0,0-.86,0l-9.07,5.24c-.25.15-.28.37-.05.5l5.64,3.26a1,1,0,0,0,.86,0l9.08-5.24c.25-.15.27-.37,0-.5Zm-6.77-38.11a1,1,0,0,0,.85,0l5.9-3.41c.25-.14.28-.36,0-.49l-5.64-3.26a.94.94,0,0,0-.86,0l-5.9,3.4c-.25.15-.27.37-.05.5Zm-8.63,5a1,1,0,0,0,.86,0l5.9-3.41c.25-.14.27-.37.05-.49l-5.64-3.26a.94.94,0,0,0-.86,0l-5.9,3.4c-.25.15-.27.37-.05.5Zm175.16-59.1a.94.94,0,0,0-.86,0l-14.52,8.38c-.25.15-.27.37-.05.5l5.64,3.26a1,1,0,0,0,.86,0l14.52-8.39c.25-.14.28-.36.05-.49Zm-19.06,11a1,1,0,0,0-.86,0l-5.9,3.41c-.25.14-.27.37-.05.49l5.64,3.26a.94.94,0,0,0,.86,0l5.9-3.4c.25-.15.27-.37.05-.5ZM189.48,380l5.9-3.4c.25-.15.27-.37.05-.5l-5.64-3.26a1,1,0,0,0-.86,0l-5.9,3.41c-.25.14-.27.36-.05.49l5.64,3.26A.94.94,0,0,0,189.48,380Zm99.14-54.91a1,1,0,0,0-.86,0l-5.9,3.41c-.25.14-.27.36-.05.49l5.65,3.26a.92.92,0,0,0,.85,0l5.9-3.41c.26-.14.28-.36.06-.49Zm44.93-25.94a.92.92,0,0,0-.85,0l-5.9,3.4c-.25.15-.28.37-.05.5l5.64,3.26a1,1,0,0,0,.86,0l5.9-3.41c.25-.14.27-.36.05-.49Zm14.27-1.72-13.71-7.92a1,1,0,0,0-.85,0l-5.9,3.41c-.26.15-.28.37-.06.49L341,301.4a.94.94,0,0,0,.86,0l5.9-3.41C348,297.82,348,297.6,347.82,297.47ZM256.4,343.73a1,1,0,0,0-.86,0l-7.26,4.2c-.25.14-.28.36-.05.49l5.64,3.26a.94.94,0,0,0,.86,0l7.26-4.19c.25-.15.27-.37.05-.5Zm21.78-12.57a.92.92,0,0,0-.85,0l-9.08,5.24c-.25.14-.27.36-.05.49l5.64,3.26a.94.94,0,0,0,.86,0l9.08-5.24c.25-.14.27-.36.05-.49Zm-41.75,24.1a1,1,0,0,0-.86,0l-48.56,28c-.25.15-.28.37,0,.5l5.64,3.26a1,1,0,0,0,.86,0L242,359c.25-.15.27-.37,0-.5Zm-51.29,29.61a1,1,0,0,0-.86,0L177,389.1c-.25.14-.27.36-.05.49l5.65,3.26a.92.92,0,0,0,.85,0l7.27-4.19c.25-.15.27-.37,0-.5Zm61.27-35.37a.92.92,0,0,0-.85,0l-7.27,4.19c-.25.15-.27.37,0,.5l5.65,3.25a.94.94,0,0,0,.85,0l7.27-4.2c.25-.14.27-.36.05-.49Zm-71.25,41.14a.94.94,0,0,0-.86,0L167,394.86c-.25.15-.28.37,0,.5l5.64,3.25a1,1,0,0,0,.86,0l7.26-4.2c.25-.14.27-.36.05-.49ZM266.38,338a.94.94,0,0,0-.86,0l-7.26,4.19c-.25.15-.27.37-.05.5l5.65,3.26a1,1,0,0,0,.85,0l7.27-4.2c.25-.14.27-.36,0-.49Zm30.86-17.82a1,1,0,0,0-.85,0l-5.9,3.41c-.25.14-.28.36-.05.49l5.64,3.26a.94.94,0,0,0,.86,0l5.9-3.4c.25-.15.27-.37.05-.5Zm19.32-13.48,5.9-3.4c.25-.15.27-.37.05-.5l-5.64-3.26a1,1,0,0,0-.86,0l-5.9,3.41c-.25.14-.27.36-.05.49l5.64,3.26A.94.94,0,0,0,316.56,306.67Zm-35.19,1.7,5.9-3.41c.25-.14.27-.37.05-.5l-5.64-3.25a.94.94,0,0,0-.86,0l-5.9,3.4c-.25.15-.27.37-.05.5l5.64,3.26A1,1,0,0,0,281.37,308.37Zm-22.9,31.84,17.24-9.95c.25-.15.28-.37.05-.5l-5.64-3.26a1,1,0,0,0-.86,0l-17.25,10c-.25.14-.27.36,0,.49l5.65,3.26A.94.94,0,0,0,258.47,340.21Zm48.61-28.53a.94.94,0,0,0,.86,0l5.9-3.41c.25-.14.27-.36.05-.49l-5.65-3.26a1,1,0,0,0-.85,0l-5.9,3.41c-.26.14-.28.36-.06.49ZM299.87,307l5.9-3.41c.25-.15.28-.37.05-.5l-5.64-3.25a1,1,0,0,0-.86,0l-5.9,3.41c-.25.15-.27.37-.05.5L299,307A.94.94,0,0,0,299.87,307Zm-50,38.19,5.9-3.41c.25-.14.28-.36,0-.49L250.15,338a1,1,0,0,0-.86,0l-5.9,3.41c-.25.14-.27.36,0,.49l5.65,3.26A.92.92,0,0,0,249.84,345.19ZM288,322.69a1,1,0,0,0,.85,0l5.9-3.41c.26-.14.28-.37.06-.49l-5.65-3.26a.94.94,0,0,0-.86,0l-5.9,3.4c-.25.15-.27.37-.05.5Zm-81.29,47.39,5.9-3.4c.25-.15.27-.37.05-.5L207,362.92a1,1,0,0,0-.85,0l-5.9,3.41c-.26.15-.28.37-.06.49l5.65,3.26A.94.94,0,0,0,206.73,370.08Zm8.62-5,5.9-3.41c.25-.15.27-.37.05-.5L215.66,358a.94.94,0,0,0-.86,0l-5.9,3.4c-.25.15-.27.37-.05.5l5.64,3.26A1,1,0,0,0,215.35,365.11Zm-17.25,9.95,5.9-3.4c.25-.15.28-.37.05-.5l-5.64-3.26a1,1,0,0,0-.86,0l-5.9,3.41c-.25.14-.27.37-.05.49l5.65,3.26A.92.92,0,0,0,198.1,375.06Zm34.5-19.91,5.9-3.41c.25-.14.27-.36.05-.49L232.9,348a.94.94,0,0,0-.86,0l-5.9,3.4c-.25.15-.27.37,0,.5l5.65,3.26A1,1,0,0,0,232.6,355.15Zm-8.63,5,5.9-3.41c.25-.14.28-.37,0-.49L224.28,353a.94.94,0,0,0-.86,0l-5.9,3.4c-.25.15-.27.37-.05.5l5.65,3.26A1,1,0,0,0,224,360.13Zm17.25-10,5.9-3.41c.25-.14.27-.36,0-.49L241.53,343a.94.94,0,0,0-.86,0l-5.9,3.41c-.25.14-.28.36-.05.49l5.64,3.26A1,1,0,0,0,241.22,350.17Zm47.06-69.26a.92.92,0,0,0,.85,0l5.9-3.41c.25-.14.28-.36.05-.49l-1.5-.87a1,1,0,0,0-.86,0l-5.9,3.41c-.25.14-.27.36-.05.49Zm-42.86,27.14a1,1,0,0,0,.85,0l5.9-3.41c.25-.14.28-.37.05-.49l-5.64-3.26a.94.94,0,0,0-.86,0l-5.9,3.4c-.25.15-.27.37,0,.5Zm17.24-10a1,1,0,0,0,.86,0l5.9-3.41c.25-.14.27-.36.05-.49l-5.64-3.26a.94.94,0,0,0-.86,0l-5.9,3.41c-.25.14-.27.36-.05.49Zm-27.77,16a1,1,0,0,0,.85,0l5.9-3.41c.25-.14.28-.37.05-.49l-5.64-3.26a.94.94,0,0,0-.86,0l-5.9,3.4c-.25.15-.27.37,0,.5ZM254,303.07a1,1,0,0,0,.86,0l5.9-3.41c.25-.14.27-.36.05-.49l-5.65-3.26a.92.92,0,0,0-.85,0l-5.9,3.4c-.26.15-.28.37-.06.5Zm-36.4,21a.94.94,0,0,0,.86,0l5.9-3.4c.25-.15.27-.37,0-.5l-5.65-3.26a1,1,0,0,0-.85,0l-5.9,3.41c-.26.15-.28.37-.05.49Zm8.62-5a1,1,0,0,0,.86,0l5.9-3.41c.25-.15.27-.37,0-.5l-5.64-3.25a1,1,0,0,0-.86,0l-5.9,3.41c-.25.15-.27.37,0,.5ZM271,290.87a1,1,0,0,0,.86,0l5.9-3.41c.25-.14.27-.36,0-.49l-1.5-.87a.94.94,0,0,0-.86,0l-5.9,3.41c-.25.14-.28.36-.05.49Zm25.87-14.94a.94.94,0,0,0,.86,0l5.9-3.4c.25-.15.27-.37,0-.5l-1.5-.87a1,1,0,0,0-.86,0l-5.9,3.41c-.25.14-.28.37-.05.49Zm11.86,6.85a1,1,0,0,0,.85,0l5.9-3.41c.26-.14.28-.36.06-.49l-5.65-3.26a.94.94,0,0,0-.86,0l-5.9,3.4c-.25.15-.27.37-.05.5Zm16.42,18.91,5.9-3.4c.25-.15.28-.37.05-.5l-5.64-3.26a1,1,0,0,0-.86,0l-5.9,3.41c-.25.14-.27.37-.05.49l5.65,3.26A.92.92,0,0,0,325.18,301.69Zm-45.53-15.8a1,1,0,0,0,.86,0l5.9-3.41c.25-.14.27-.36,0-.49l-1.5-.87a.94.94,0,0,0-.86,0l-5.9,3.41c-.25.14-.27.36-.05.49ZM209,329.06a.92.92,0,0,0,.85,0l5.9-3.4c.25-.15.28-.37,0-.5l-5.64-3.26a1,1,0,0,0-.86,0l-5.9,3.41c-.25.14-.27.36,0,.49Z" style="fill:#263238"></path><polygon points="234.54 373.54 235.75 374.23 267.88 392.78 325.02 359.79 326.21 359.11 292.87 339.87 234.54 373.54" style="opacity:0.4"></polygon><polygon points="235.75 374.23 267.88 392.78 325.02 359.79 292.87 341.24 235.75 374.23" style="fill:#1565C0"></polygon><polygon points="235.75 374.23 267.88 392.78 325.02 359.79 292.87 341.24 235.75 374.23" style="opacity:0.45"></polygon><path d="M69.76,367.52a7.49,7.49,0,0,0,1.63.7,7.45,7.45,0,0,1-1.63-.68,5.39,5.39,0,0,1-.5-.33A5.19,5.19,0,0,0,69.76,367.52Z" style="fill:#1565C0"></path><path d="M79,368s0,0,.09-.08l-.07.06Z" style="fill:#1565C0"></path></g></g><g id="freepik--speed-indicator--inject-5"><g id="freepik--Speed--inject-5"><path d="M447.6,24.56l-127,73.33a4.53,4.53,0,0,0-2.06,3.56v142.2a4.5,4.5,0,0,0,2.07,3.54l3.75,2.12a4.65,4.65,0,0,0,4.13,0l127-73.33a4.54,4.54,0,0,0,2.05-3.56V30.2a4.49,4.49,0,0,0-2.06-3.54l-3.76-2.12A4.63,4.63,0,0,0,447.6,24.56Z" style="fill:#fafafa"></path><path d="M326.43,248.1V105.9a4.54,4.54,0,0,1,2.06-3.56L455.49,29c1.13-.65,2.05-.12,2.05,1.19V172.4a4.54,4.54,0,0,1-2.05,3.56l-127,73.33C327.35,249.94,326.43,249.41,326.43,248.1Z" style="fill:#37474f"></path><path d="M328.49,249.29a4.75,4.75,0,0,1-4.13,0l-3.75-2.13a4.45,4.45,0,0,1-2.07-3.53V101.45a4.2,4.2,0,0,1,.66-2.1l7.84,4.53a4.08,4.08,0,0,0-.61,2V248.1C326.43,249.3,327.28,250,328.49,249.29Z" style="fill:#263238"></path><path d="M457.52,29.83c-.16-1-1-1.41-2-.82l-127,73.33a4.15,4.15,0,0,0-1.45,1.54l-7.85-4.53a4,4,0,0,1,1.41-1.46l127-73.33a4.56,4.56,0,0,1,4.12,0l3.75,2.12A4.56,4.56,0,0,1,457.52,29.83Z" style="fill:#455a64"></path><path d="M303.07,186.48c-1.29-.77-7.28-4.18-7.59-4.36a1.91,1.91,0,0,1-.41-2.93l23.65-25.37,7.71,4.43-23.64,25.37A1.91,1.91,0,0,0,303.07,186.48Z" style="fill:#fafafa"></path><path d="M303.07,186.48c-1.29-.77-7.28-4.18-7.59-4.36a1.91,1.91,0,0,1-.41-2.93l23.65-25.37,7.71,4.43-23.64,25.37A1.91,1.91,0,0,0,303.07,186.48Z" style="fill:#455a64"></path><path d="M326.43,158.25l-23.64,25.37a1.9,1.9,0,0,0,1.54,3.19l22.1-1.82Z" style="fill:#fafafa"></path><path d="M326.43,158.25l-23.64,25.37a1.9,1.9,0,0,0,1.54,3.19l22.1-1.82Z" style="fill:#37474f"></path><path d="M398.88,146.75c-1.81-1.09-4.34-1-7.14.66-5.54,3.2-10,11-10,17.38,0,3.18,1.11,5.41,2.91,6.47,1.18.69,5.68,3.27,6.84,4,1.82,1.07,4.33.93,7.12-.68,5.54-3.2,10-11,10-17.38,0-3.16-1.11-5.4-2.9-6.45C404.53,150,400,147.43,398.88,146.75Z" style="fill:#ebebeb"></path><path d="M402.18,171.67l-19.79-11.43a17.07,17.07,0,0,0-.68,4.55c0,3.18,1.11,5.41,2.91,6.47,1.18.69,5.68,3.27,6.84,4,1.82,1.07,4.33.93,7.12-.68A17.08,17.08,0,0,0,402.18,171.67Z" style="fill:#e0e0e0"></path><path d="M398.57,151.36c-5.54,3.2-10,11-10,17.38s4.5,9,10,5.79,10-11,10-17.38S404.11,148.16,398.57,151.36Z" style="fill:#fafafa"></path><path d="M398.57,155.46a14.35,14.35,0,0,0-6.48,11.23c0,4.13,2.91,5.81,6.49,3.74a14.35,14.35,0,0,0,6.48-11.23C405.05,155.07,402.15,153.4,398.57,155.46Z" style="fill:#37474f"></path><path d="M442,137.78c0,.93,0,1.73-.05,2.67L430.62,147l-6.82-3.94c0-.76,0-1.87,0-2.62,0-7.74-1.84-13.93-5-18.3L428,109l6.83,3.94C439.37,118.73,442,127.14,442,137.78Z" style="fill:#1565C0"></path><path d="M442,137.78c0,.94,0,1.73-.05,2.67L430.62,147c0-.76.05-1.86.05-2.62,0-7.73-1.84-13.93-5-18.29L434.82,113C439.37,118.73,442,127.15,442,137.78Z" style="fill:#1565C0"></path><polygon points="425.64 126.08 418.81 122.14 427.99 109 434.82 112.95 425.64 126.08" style="opacity:0.1"></polygon><path d="M430.66,144.37c0,.76,0,1.86,0,2.62l-6.82-3.94c0-.76,0-1.87,0-2.62,0-7.74-1.84-13.93-5-18.3l6.83,4C428.83,130.44,430.66,136.64,430.66,144.37Z" style="opacity:0.2"></path><path d="M432.78,109.72l-9.14,13.08-6.83-4-.38-.34a21.18,21.18,0,0,0-9-.58L400.57,114,404,99.39c6.57-1,12.46,0,17.31,2.79l6.68,3.84c.3.17.6.35.89.54l.59.39c.2.13.4.26.59.41s.28.2.41.31A18.56,18.56,0,0,1,432,109C432.3,109.24,432.54,109.47,432.78,109.72Z" style="fill:#1565C0"></path><path d="M423.64,122.8l-6.83-4-.37-.33A17.22,17.22,0,0,1,423.64,122.8Z" style="opacity:0.2"></path><path d="M432.79,109.72l-9.15,13.08c-4.08-4-9.7-5.78-16.24-4.87l3.37-14.59C419.64,102,427.29,104.25,432.79,109.72Z" style="fill:#fff;opacity:0.2"></path><polygon points="403.94 99.39 410.77 103.34 407.4 117.93 400.57 113.99 403.94 99.39" style="opacity:0.1"></polygon><path d="M421.26,102.18l6.68,3.84c-4.82-2.74-10.66-3.7-17.17-2.69L404,99.39C410.52,98.37,416.41,99.37,421.26,102.18Z" style="fill:#fff;opacity:0.5"></path><path d="M407.48,104l-3.37,14.57a38.7,38.7,0,0,0-9.5,4,58,58,0,0,0-9.55,7l-6.82-4-3.31-10.79a75.8,75.8,0,0,1,12.77-9.39,50.89,50.89,0,0,1,12.95-5.41Z" style="fill:#1565C0"></path><polygon points="374.93 114.87 381.76 118.82 385.06 129.61 378.24 125.67 374.93 114.87" style="opacity:0.05"></polygon><path d="M407.48,104a50.48,50.48,0,0,0-13,5.4,76.92,76.92,0,0,0-12.77,9.39l-6.83-3.94a75.8,75.8,0,0,1,12.77-9.39,50.89,50.89,0,0,1,12.95-5.41Z" style="fill:#fff;opacity:0.6000000000000001"></path><path d="M407.48,104l-3.36,14.57a38.44,38.44,0,0,0-9.5,4,57.63,57.63,0,0,0-9.55,7l-3.31-10.79a75.8,75.8,0,0,1,12.77-9.39A50.53,50.53,0,0,1,407.48,104Z" style="fill:#fff;opacity:0.4"></path><path d="M381.85,132.67a85.15,85.15,0,0,0-15.33,21.72l-8.92-3.23-6.83-3.95a112.06,112.06,0,0,1,20.93-29.3l6.83,4Z" style="fill:#1565C0"></path><path d="M378.53,121.86a111.73,111.73,0,0,0-20.93,29.3l-6.83-3.95a112.06,112.06,0,0,1,20.93-29.3Z" style="fill:#fff;opacity:0.7000000000000001"></path><path d="M381.85,132.67a85.21,85.21,0,0,0-15.33,21.73l-8.92-3.24a111.73,111.73,0,0,1,20.93-29.3Z" style="fill:#fff;opacity:0.6000000000000001"></path><path d="M364.46,158.82h0c-3.59,8.41-5.73,16.68-5.86,24.86l-11.51,6.65-6.83-4c.22-11.22,3.3-23.28,8.42-34.74l9,3.24Z" style="fill:#1565C0"></path><polygon points="355.51 155.58 348.68 151.64 357.64 154.88 364.47 158.82 355.51 155.58" style="fill:#fff;opacity:0.6000000000000001"></polygon><path d="M355.51,155.58c-5.13,11.47-8.2,23.52-8.42,34.75l-6.83-4c.22-11.22,3.3-23.28,8.42-34.74Z" style="fill:#fff;opacity:0.9"></path><path d="M364.47,158.82h0c-3.6,8.4-5.74,16.68-5.88,24.86l-11.5,6.64c.22-11.22,3.29-23.28,8.42-34.75Z" style="fill:#fff;opacity:0.75"></path><polygon points="436.63 132.43 434.82 131.41 385.53 169.66 385.68 176.98 387.49 178 436.63 132.43" style="fill:#e0e0e0"></polygon><polygon points="387.49 178 387.35 170.68 436.63 132.43 387.49 178" style="fill:#ebebeb"></polygon><polygon points="385.53 169.66 387.35 170.68 436.63 132.43 434.82 131.41 385.53 169.66" style="fill:#fff"></polygon></g></g></svg>