<svg width="104" height="39" viewBox="0 0 104 39" fill="none" xmlns="http://www.w3.org/2000/svg">
<path fill-rule="evenodd" clip-rule="evenodd" d="M77.4597 7.0611C82.3114 7.95635 85.9989 9.72465 89.6639 11.6342C101.682 17.9023 104.877 25.1566 95.1441 30.2268C80.013 38.0836 47.4525 39.6026 23.5013 32.6689C18.1964 31.1365 10.9641 29.3771 6.11502 25.2612C1.60405 21.4338 2.38792 17.8666 5.21042 14.8994C8.08803 11.8545 13.0867 9.42786 16.99 7.97837C34.0524 1.65948 66.6797 -1.346 94.3519 7.41381C94.9216 7.58844 95.5269 7.54159 95.734 7.31402C95.9412 7.08645 95.6931 6.76725 95.165 6.59928C66.68 -2.41689 33.0261 0.601012 15.4647 7.10378C10.6074 8.91277 4.10699 12.1896 1.7456 16.2779C0.145759 19.0744 0.450026 22.2432 4.35605 25.582C9.50415 29.9637 17.1798 31.888 22.8108 33.5169C47.537 40.6766 81.2101 39.1388 96.81 31.0199C107.287 25.5728 103.922 17.7799 90.9969 11.0415C87.058 8.97564 83.0054 7.08664 77.7389 6.11516C77.1583 6.00824 76.6261 6.13364 76.5835 6.40021C76.4993 6.66013 76.9207 6.96083 77.4597 7.0611Z" fill="#0D47A1"/>
</svg>
