<svg width="24" height="24" viewBox="0 0 24 24" fill="none" xmlns="http://www.w3.org/2000/svg">
<path fill-rule="evenodd" clip-rule="evenodd" d="M9.50651 4.72958C9.44223 4.34815 9.3938 3.97105 9.36251 3.59391C9.31537 3.02819 9.34452 2.45815 9.3278 1.89244C9.32052 1.65244 9.2918 1.02673 9.30337 0.936733C9.40837 0.152448 10.0414 0.032433 10.2265 0.0110044C10.3161 -0.0018527 11.2358 -0.104664 11.4342 0.915336C11.6776 2.16248 11.7557 3.41818 11.6695 4.64818C11.8705 5.69389 12.2142 6.7353 12.6681 7.67815C14.4741 11.4282 17.9155 11.7924 21.6441 11.7582C22.2175 11.7496 22.6937 12.1996 22.7237 12.7696C22.7537 13.3439 22.3268 13.841 21.756 13.8924C19.6718 14.0939 15.9741 15.7653 14.6956 17.5053C14.4282 17.8696 14.2727 18.7482 14.0669 19.6096C13.7798 20.8053 13.4382 21.9882 13.0555 22.4853C12.9981 22.5625 12.2999 23.351 12.0916 23.4668C11.5911 23.741 11.1904 23.5824 10.9628 23.4367C10.7352 23.291 10.4777 23.0039 10.3748 22.5282C10.2672 22.031 10.3581 21.011 10.3414 20.7924C10.2805 19.9996 10.122 18.4439 9.79838 17.1067C9.62395 16.3867 9.43794 15.7224 9.13023 15.3924C7.99109 14.171 6.16966 14.351 4.6358 14.5525C4.45966 14.5739 4.28352 14.5996 4.1078 14.621C3.48338 14.8053 2.82036 14.9424 2.11964 15.0239C1.0615 15.1482 0.887513 14.1753 0.878085 14.111C0.858371 13.9696 0.785077 13.241 1.58265 12.9496C1.66965 12.9196 2.31166 12.7782 2.55894 12.7224C2.90351 12.6453 3.25193 12.5853 3.60165 12.5296C7.21408 11.4068 9.17608 8.25244 9.50651 4.72958ZM10.7464 8.62533C12.1101 11.4453 14.1797 12.8082 16.6328 13.4253H16.6324C15.1007 14.2267 13.7074 15.2296 12.9689 16.2368C12.6886 16.6182 12.4315 17.3853 12.1997 18.2467C12.0741 17.4453 11.9044 16.5924 11.6802 15.8639C11.4252 15.0324 11.0819 14.3425 10.6988 13.931C9.95908 13.1382 9.03079 12.6968 8.03264 12.4782C9.2275 11.4196 10.1335 10.0996 10.7464 8.62533Z" fill="#0D47A1"/>
</svg>
