<svg width="22" height="24" viewBox="0 0 22 24" fill="none" xmlns="http://www.w3.org/2000/svg">
<path fill-rule="evenodd" clip-rule="evenodd" d="M7.32939 22.3967C5.2377 21.8097 3.04777 21.5136 0.923396 21.2423C0.465839 21.1854 0.041028 21.5028 0.00834539 21.9499C-0.0570199 22.3973 0.269998 22.8065 0.694873 22.8634C2.75388 23.1245 4.87806 23.4039 6.8717 23.969C7.29658 24.0916 7.75432 23.8393 7.88506 23.4052C8.01579 22.9715 7.75426 22.5195 7.32939 22.3967Z" fill="#0D47A1"/>
<path fill-rule="evenodd" clip-rule="evenodd" d="M13.6695 14.0747C10.3032 10.6394 6.51202 7.6463 3.21107 4.11887C2.91693 3.78942 2.39401 3.77177 2.06718 4.07932C1.74035 4.38719 1.7078 4.90488 2.03463 5.23432C5.33557 8.77189 9.12676 11.7748 12.4931 15.2202C12.8199 15.5418 13.3427 15.5464 13.6695 15.23C13.9637 14.9139 13.9963 14.3963 13.6695 14.0747Z" fill="#0D47A1"/>
<path fill-rule="evenodd" clip-rule="evenodd" d="M19.9777 0.861436C20.0758 2.82762 20.1736 4.79381 20.2717 6.76033C20.2717 7.21069 20.664 7.55844 21.1216 7.53654C21.5792 7.51432 21.9058 7.13095 21.9058 6.68026C21.8078 4.7108 21.7099 2.74167 21.6118 0.772539C21.5792 0.322172 21.1869 -0.0232842 20.7294 0.00122783C20.3045 0.0257398 19.945 0.411396 19.9777 0.861436Z" fill="#0D47A1"/>
</svg>
