<svg width="16" height="16" viewBox="0 0 16 16" fill="none" xmlns="http://www.w3.org/2000/svg">
<path fill-rule="evenodd" clip-rule="evenodd" d="M7.12152 6.01128C5.6363 4.79041 4.43284 3.33649 3.52849 1.64258C3.34762 1.30519 2.92677 1.17649 2.5859 1.35736C2.2485 1.53823 2.11979 1.95911 2.30065 2.29998C3.29544 4.15389 4.61024 5.74694 6.23807 7.08607C6.53372 7.32955 6.97544 7.2878 7.21892 6.99215C7.4624 6.69302 7.41717 6.25475 7.12152 6.01128Z" fill="#0D47A1"/>
<path fill-rule="evenodd" clip-rule="evenodd" d="M6.32953 1.25651C6.40605 2.66172 6.47563 4.06694 6.56259 5.47216C6.58693 5.85477 6.91737 6.14694 7.29998 6.12259C7.68258 6.09824 7.97476 5.76781 7.95041 5.3852C7.86345 3.98346 7.79387 2.58173 7.71735 1.17651C7.69648 0.794949 7.36605 0.501034 6.98344 0.522599C6.60083 0.544164 6.30518 0.872855 6.32953 1.25651Z" fill="#0D47A1"/>
<path fill-rule="evenodd" clip-rule="evenodd" d="M11.4933 1.54175C10.6029 2.88436 9.59426 4.1226 8.57861 5.37478C8.33513 5.67391 8.38032 6.11219 8.67945 6.35219C8.97858 6.59567 9.41686 6.55043 9.65686 6.2513C10.7003 4.96783 11.7369 3.6913 12.6551 2.31043C12.8673 1.99043 12.7768 1.55914 12.4568 1.34697C12.1403 1.13479 11.7055 1.22175 11.4933 1.54175Z" fill="#0D47A1"/>
<path fill-rule="evenodd" clip-rule="evenodd" d="M14.9426 6.53304C12.5287 6.64086 9.96522 6.64434 7.55131 6.4913C7.1687 6.47043 6.83827 6.75913 6.81392 7.14521C6.78957 7.52782 7.08174 7.85825 7.46435 7.8826C9.92696 8.03565 12.5426 8.03217 15.0052 7.92434C15.3878 7.90695 15.6869 7.58 15.6696 7.19739C15.6522 6.81479 15.3252 6.51564 14.9426 6.53304Z" fill="#0D47A1"/>
<path fill-rule="evenodd" clip-rule="evenodd" d="M6.23624 6.97473C7.72494 8.79734 9.26582 10.5852 10.6467 12.4913C10.8728 12.8008 11.3076 12.8704 11.6206 12.6443C11.9302 12.4182 11.9997 11.9834 11.7736 11.6738C10.3754 9.74689 8.81714 7.9382 7.31105 6.09472C7.06758 5.79907 6.62929 5.75386 6.33364 5.99734C6.03451 6.24082 5.99276 6.67908 6.23624 6.97473Z" fill="#0D47A1"/>
<path fill-rule="evenodd" clip-rule="evenodd" d="M6.68704 7.50359C7.0766 9.40272 7.18443 11.2184 7.21226 13.1419C7.21573 13.5245 7.53226 13.8305 7.91487 13.8271C8.30096 13.8201 8.60704 13.5071 8.60008 13.121C8.57225 11.1071 8.45749 9.21141 8.05053 7.22185C7.97053 6.8462 7.60531 6.6027 7.22618 6.6827C6.85053 6.75922 6.60704 7.12794 6.68704 7.50359Z" fill="#0D47A1"/>
<path fill-rule="evenodd" clip-rule="evenodd" d="M6.74983 7.35061C5.62288 9.60453 5.04201 12.1089 3.83505 14.3141C3.6507 14.648 3.77589 15.0723 4.11329 15.2567C4.45068 15.441 4.87158 15.3158 5.05592 14.9819C6.26984 12.7628 6.85765 10.2445 7.99504 7.97322C8.16547 7.62887 8.02634 7.21148 7.68547 7.03756C7.34112 6.86713 6.92375 7.00627 6.74983 7.35061Z" fill="#0D47A1"/>
<path fill-rule="evenodd" clip-rule="evenodd" d="M7.37005 6.83912C5.12657 7.23564 2.88657 7.41651 0.629182 7.68433C0.246573 7.72955 -0.0247312 8.07391 0.0204862 8.45652C0.0657036 8.83912 0.410084 9.11043 0.792692 9.06521C3.07443 8.79739 5.34225 8.60955 7.61356 8.20955C7.98921 8.13999 8.24312 7.77825 8.17703 7.40259C8.10747 7.02346 7.74918 6.76955 7.37005 6.83912Z" fill="#0D47A1"/>
<path fill-rule="evenodd" clip-rule="evenodd" d="M8.93115 5.78192C8.46854 5.76105 8.03027 5.72974 7.5781 5.66365C7.19549 5.608 6.84418 5.87235 6.78853 6.25148C6.73288 6.63061 6.9972 6.9854 7.37633 7.04105C7.8772 7.11409 8.3607 7.14887 8.86852 7.16974C9.25113 7.18713 9.57807 6.89147 9.59198 6.50538C9.60938 6.12277 9.31376 5.79931 8.93115 5.78192Z" fill="#0D47A1"/>
</svg>
