<svg width="188" height="80" viewBox="0 0 188 80" fill="none" xmlns="http://www.w3.org/2000/svg">
<path d="M15.16 39.44C10.6267 39.44 7.16 38.0933 4.76 35.4C2.36 32.68 1.16 28.9733 1.16 24.28C1.16 21.1867 1.78667 18.4933 3.04 16.2C4.32 13.88 6.06667 12.0933 8.28 10.84C10.4933 9.58666 13 8.96 15.8 8.96C16.9733 8.96 18.1067 9.04 19.2 9.2C20.2933 9.33333 21.5867 9.52 23.08 9.76C24.2 9.94667 24.8133 10.04 24.92 10.04L24.48 18.28H20.8L19.56 12.56C19.2667 12.2667 18.76 12.0267 18.04 11.84C17.32 11.6533 16.4 11.56 15.28 11.56C13.0133 11.56 11.1867 12.6133 9.8 14.72C8.44 16.8 7.76 19.8267 7.76 23.8C7.76 27.64 8.41333 30.7733 9.72 33.2C11.0267 35.6267 12.9333 36.84 15.44 36.84C16.64 36.84 17.56 36.7333 18.2 36.52C18.8667 36.28 19.4267 35.9467 19.88 35.52L21.64 31.4L25 31.72L24.2 37.92C23.64 37.9733 23.08 38.08 22.52 38.24C21.9867 38.3733 21.6533 38.4533 21.52 38.48C20.4533 38.7733 19.4533 39 18.52 39.16C17.6133 39.3467 16.4933 39.44 15.16 39.44ZM27.6881 32.76C27.6881 30.3333 28.9015 28.5067 31.3281 27.28C33.7815 26.0533 36.9415 25.4267 40.8081 25.4V24.48C40.8081 23.3867 40.6881 22.5333 40.4481 21.92C40.2348 21.3067 39.8215 20.8533 39.2081 20.56C38.6215 20.24 37.7548 20.08 36.6081 20.08C35.3015 20.08 34.1281 20.2533 33.0881 20.6C32.0481 20.92 30.9681 21.3467 29.8481 21.88L28.6081 19.32C29.0081 18.9733 29.6748 18.56 30.6081 18.08C31.5681 17.6 32.7015 17.1867 34.0081 16.84C35.3148 16.4667 36.6615 16.28 38.0481 16.28C40.1015 16.28 41.7015 16.5467 42.8481 17.08C44.0215 17.6133 44.8615 18.4667 45.3681 19.64C45.8748 20.8133 46.1281 22.3867 46.1281 24.36V36.6H48.2881V38.84C47.7548 38.9733 46.9948 39.1067 46.0081 39.24C45.0215 39.3733 44.1548 39.44 43.4081 39.44C42.5015 39.44 41.8881 39.3067 41.5681 39.04C41.2748 38.7733 41.1281 38.2267 41.1281 37.4V36.32C40.4081 37.12 39.4748 37.84 38.3281 38.48C37.1815 39.12 35.8881 39.44 34.4481 39.44C33.2215 39.44 32.0881 39.1867 31.0481 38.68C30.0348 38.1467 29.2215 37.3867 28.6081 36.4C27.9948 35.3867 27.6881 34.1733 27.6881 32.76ZM37.0081 36.12C37.5681 36.12 38.2081 35.96 38.9281 35.64C39.6481 35.2933 40.2748 34.88 40.8081 34.4V27.84C38.4081 27.84 36.6081 28.2533 35.4081 29.08C34.2348 29.88 33.6481 30.92 33.6481 32.2C33.6481 33.48 33.9415 34.4533 34.5281 35.12C35.1415 35.7867 35.9681 36.12 37.0081 36.12ZM50.7844 36.64L53.4244 36.32V20.56L50.8644 19.84V17.08L57.0644 16.24H57.1844L58.1844 17.04V17.92L58.0644 21.16H58.1844C58.371 20.6267 58.811 19.9733 59.5044 19.2C60.1977 18.4 61.0644 17.7067 62.1044 17.12C63.171 16.5067 64.3177 16.2 65.5444 16.2C66.131 16.2 66.6377 16.28 67.0644 16.44V22.44C66.2644 21.88 65.291 21.6 64.1444 21.6C62.1977 21.6 60.5044 22.12 59.0644 23.16V36.28L63.7044 36.64V39H50.7844V36.64ZM77.9725 39.44C76.3192 39.44 74.8392 39.0533 73.5325 38.28C72.2258 37.48 71.1858 36.2533 70.4125 34.6C69.6392 32.9467 69.2525 30.88 69.2525 28.4C69.2525 26.16 69.7058 24.12 70.6125 22.28C71.5458 20.4133 72.9058 18.9333 74.6925 17.84C76.4792 16.7467 78.6258 16.2 81.1325 16.2C82.1458 16.2 83.1058 16.3067 84.0125 16.52V9.76L80.0925 9.2V7L88.3325 6.2H88.4525L89.5725 7.04V36.56H91.7325V38.84C89.8125 39.24 88.2258 39.44 86.9725 39.44C86.1192 39.44 85.5058 39.2933 85.1325 39C84.7858 38.7333 84.6125 38.1867 84.6125 37.36V36.24C83.9192 37.1733 82.9725 37.9467 81.7725 38.56C80.5725 39.1467 79.3058 39.44 77.9725 39.44ZM80.0525 36.12C80.9325 36.12 81.7058 35.9467 82.3725 35.6C83.0658 35.2267 83.6125 34.7867 84.0125 34.28V19.72C83.8258 19.4533 83.4258 19.2267 82.8125 19.04C82.2258 18.8533 81.5858 18.76 80.8925 18.76C79.1858 18.76 77.8125 19.5067 76.7725 21C75.7592 22.4667 75.2525 24.8267 75.2525 28.08C75.2525 30.8 75.6925 32.8267 76.5725 34.16C77.4525 35.4667 78.6125 36.12 80.0525 36.12ZM99.4116 13.12C98.4516 13.12 97.6916 12.84 97.1316 12.28C96.5716 11.72 96.2916 11 96.2916 10.12C96.2916 9.10666 96.6116 8.26666 97.2516 7.6C97.8916 6.93333 98.7449 6.6 99.8116 6.6C100.878 6.6 101.692 6.89333 102.252 7.48C102.812 8.04 103.092 8.74667 103.092 9.6C103.092 10.6667 102.772 11.52 102.132 12.16C101.492 12.8 100.598 13.12 99.4516 13.12H99.4116ZM97.2916 20.56L94.4516 19.8V17.12L101.772 16.24H101.852L102.972 17.04V36.28L105.652 36.6V39H94.4916V36.6L97.2916 36.24V20.56ZM111.279 19.88H107.919V17.64L111.279 16.84V15.08C111.279 13.3467 111.732 11.76 112.639 10.32C113.572 8.88 114.812 7.74667 116.359 6.92C117.905 6.06666 119.545 5.64 121.279 5.64C122.185 5.64 123.039 5.77333 123.839 6.04V11.16C123.572 10.8933 123.039 10.6267 122.239 10.36C121.465 10.0933 120.652 9.96 119.799 9.96C118.759 9.96 118.012 10.2267 117.559 10.76C117.132 11.2667 116.919 12.1467 116.919 13.4V16.8H121.999V19.88H116.919V36.28L121.119 36.6V39H108.119V36.6L111.279 36.24V19.88ZM128.407 48.96C127.927 48.96 127.407 48.92 126.847 48.84C126.314 48.76 125.927 48.6667 125.687 48.56V44.28C125.874 44.3867 126.247 44.4933 126.807 44.6C127.367 44.7067 127.874 44.76 128.327 44.76C129.66 44.76 130.754 44.32 131.607 43.44C132.487 42.56 133.3 41.08 134.047 39H131.887L124.367 19.6L122.567 19.08V16.76H133.567V19.08L130.647 19.56L134.207 30.64L135.647 35.36L136.887 30.64L140.167 19.56L137.647 19.08V16.76H146.327V19.08L144.367 19.56C142.9 24.04 141.447 28.36 140.007 32.52C138.567 36.68 137.727 39.0133 137.487 39.52C136.634 41.76 135.82 43.5467 135.047 44.88C134.274 46.2133 133.354 47.2267 132.287 47.92C131.22 48.6133 129.927 48.96 128.407 48.96Z" fill="#1565C0"/>
<path d="M123.24 56.5437L143.66 53.0205C148.014 52.2693 152.179 55.1852 152.962 59.5335L155.77 75.1166L127.467 80.0001L123.24 56.5437Z" fill="#013D79"/>
<path d="M183.058 46.161L162.638 49.6842C158.284 50.4355 155.389 54.5694 156.173 58.9177L158.981 74.5009L187.284 69.6174L183.058 46.161Z" fill="#5DA9DD"/>
<path d="M150.008 24.6304L178.311 19.7469L182.538 43.2033L162.118 46.7265C157.764 47.4778 153.599 44.5618 152.816 40.2135L150.008 24.6304Z" fill="#E1B713"/>
<ellipse rx="5.98808" ry="5.94966" transform="matrix(0.985316 -0.170764 0.176579 0.984291 144.821 43.853)" fill="#414042"/>
</svg>
